<svg xmlns="http://www.w3.org/2000/svg" width="190.33" height="15.9"><g data-name="Layer 2"><g data-name="Layer 1"><path d="M72 3.17a2.07 2.07 0 0 0-1.1-.84 8 8 0 0 0-2.33-.24h-.67V7h.84a6.33 6.33 0 0 0 2.32-.29 2.1 2.1 0 0 0 1-.87 2.47 2.47 0 0 0 .35-1.33A2.42 2.42 0 0 0 72 3.17Zm75.41 6.17h6.66l-3.33-7.3-3.33 7.3zM102.65 1.2h-4.29v13.5h4.37a7.13 7.13 0 0 0 5-1.85 6.35 6.35 0 0 0 2-4.9 6.47 6.47 0 0 0-2-4.87 7.14 7.14 0 0 0-5.08-1.88Zm21.41 3.03A2.63 2.63 0 0 0 123 2a4.88 4.88 0 0 0-3-.8h-2.53v6.07H120a4.9 4.9 0 0 0 3-.8 2.65 2.65 0 0 0 1.06-2.24Z" style="fill:none"/><path d="M0 15.7h2.22V8.48h6.05V6.5H2.22V2.17h6.05V.2H0v15.5zM23.7 9a8.06 8.06 0 0 1-.29 2.58 3.21 3.21 0 0 1-.95 1.31 4.83 4.83 0 0 1-3.21 1 5.32 5.32 0 0 1-2.41-.51A3.58 3.58 0 0 1 15.32 12a6.58 6.58 0 0 1-.5-3V.2h-2.23V9a10.8 10.8 0 0 0 .25 2.75 6.16 6.16 0 0 0 .63 1.48 5.12 5.12 0 0 0 .94 1.09 7.19 7.19 0 0 0 4.86 1.58 7.08 7.08 0 0 0 4.81-1.59 4.8 4.8 0 0 0 .92-1.1 5.65 5.65 0 0 0 .64-1.52A10 10 0 0 0 25.93 9V.2H23.7Zm6.25-6.85h5.32V15.7h2.22V2.15h5.41V.18H29.95v1.97zM58.05 9a8.06 8.06 0 0 1-.29 2.58 3.1 3.1 0 0 1-.94 1.31 4.86 4.86 0 0 1-3.22 1 5.35 5.35 0 0 1-2.41-.51A3.64 3.64 0 0 1 49.67 12a6.58 6.58 0 0 1-.5-3V.2h-2.23V9a11.29 11.29 0 0 0 .25 2.75 5.78 5.78 0 0 0 .64 1.48 4.8 4.8 0 0 0 .93 1.09 7.19 7.19 0 0 0 4.86 1.58 7.11 7.11 0 0 0 4.82-1.59 5.07 5.07 0 0 0 .94-1.08 6 6 0 0 0 .62-1.54A10.55 10.55 0 0 0 60.28 9V.2h-2.23Zm17.47 3.6a27.68 27.68 0 0 0-2-2.94 6.82 6.82 0 0 0-1.45-1.33A4.05 4.05 0 0 0 74 6.86a4.06 4.06 0 0 0 .68-2.34 3.92 3.92 0 0 0-1.38-3.16A5.64 5.64 0 0 0 69.58.2h-3.89v15.5h2.22V9h.58a3.6 3.6 0 0 1 1.51.2 4.76 4.76 0 0 1 1 .82 11.64 11.64 0 0 1 1.26 1.52l.74 1.21.69 1.13.43.61a1.29 1.29 0 0 1 .13.19l.68 1h2.64l-.82-1.11c-.26-.42-.69-1.09-1.23-1.97Zm-4.45-5.91a6.33 6.33 0 0 1-2.32.31h-.84V2.09h.67a8 8 0 0 1 2.33.24 2.07 2.07 0 0 1 1.1.84 2.42 2.42 0 0 1 .38 1.32A2.47 2.47 0 0 1 72 5.82a2.1 2.1 0 0 1-.93.87Zm12.77 2.2h6.35V6.9h-6.35V2.17h6.57V.2h-8.79v15.48h9V13.7h-6.78V8.89zM102.59.2h-5.43v15.5h5.64a8.14 8.14 0 0 0 6.09-2.19A7.62 7.62 0 0 0 111 8a7.56 7.56 0 0 0-2.17-5.59A8.53 8.53 0 0 0 102.59.2Zm5.15 12.65a7.13 7.13 0 0 1-5 1.85h-4.38V1.2h4.29a7.14 7.14 0 0 1 5.12 1.88 6.47 6.47 0 0 1 2 4.87 6.35 6.35 0 0 1-2.03 4.9ZM122.41 8q3-1.1 3-3.78A3.58 3.58 0 0 0 124 1.28 5.89 5.89 0 0 0 120.22.2h-4v15.5h1.2V8.27h2.1a3.82 3.82 0 0 1 2.2.52 10.16 10.16 0 0 1 2.11 2.66l2.7 4.25H128l-3.51-5.36A6.86 6.86 0 0 0 122.41 8ZM120 7.27h-2.57V1.2H120a4.88 4.88 0 0 1 3 .8 2.63 2.63 0 0 1 1 2.23 2.65 2.65 0 0 1-1 2.24 4.9 4.9 0 0 1-3 .8Zm12.77 1.14h7.07V7.4h-7.07V1.2h7.26v-1h-8.46v15.5h8.63v-1h-7.43V8.41zM150.42.09l-7.17 15.61h1.26l2.49-5.36h7.58L157 15.7h1.26L151.07.09Zm-3 9.25L150.73 2l3.34 7.3Zm22.05-1.94L163.54.2h-1.2v15.5h1.2V1.95l5.92 7.25 5.9-7.25V15.7h1.21V.2h-1.22l-5.88 7.2zm20.3 2.06a3.9 3.9 0 0 0-1.38-1.28 20.94 20.94 0 0 0-2.57-1.11 5.41 5.41 0 0 1-2.32-1.39 2.59 2.59 0 0 1-.56-1.62 2.72 2.72 0 0 1 .94-2.1 3.34 3.34 0 0 1 2.34-.85 7.23 7.23 0 0 1 3.47 1.19V1a7.41 7.41 0 0 0-3.59-1 4.52 4.52 0 0 0-3.1 1.2 3.84 3.84 0 0 0-1.31 2.91 3.49 3.49 0 0 0 .54 2 3.83 3.83 0 0 0 1.31 1.2 24.18 24.18 0 0 0 2.57 1.11 5.41 5.41 0 0 1 2.39 1.48 3 3 0 0 1-.36 4 3.31 3.31 0 0 1-2.33.89 7 7 0 0 1-3.9-1.65v1.4a7.13 7.13 0 0 0 4 1.36 4.49 4.49 0 0 0 3.09-1.23 4 4 0 0 0 1.31-3 3.93 3.93 0 0 0-.54-2.21Z" style="fill:#030304"/></g></g></svg>